<svg width="150" height="196" viewBox="0 0 150 196" fill="none" xmlns="http://www.w3.org/2000/svg">
<rect x="149.853" y="195.203" width="149.853" height="195.203" rx="21.032" transform="rotate(-180 149.853 195.203)" fill="url(#paint0_linear)"/>
<path d="M67.5117 59.0188C67.0139 58.8499 66.4858 58.7894 65.9626 58.8413C65.4395 58.8932 64.9335 59.0563 64.4785 59.3197L30.7396 78.8628C30.7271 78.87 30.7147 78.8774 30.7024 78.8851C28.9948 79.9363 28.4496 81.8825 29.3453 83.7281C30.4625 86.0288 34.4201 88.1947 39.1936 89.1178C40.9318 89.4509 42.6978 89.6173 44.4676 89.6147C48.2674 89.6147 52.9319 88.8667 58.0972 86.4582C62.1091 84.5878 65.9241 80.5024 68.3024 75.5288C70.808 70.289 71.3042 65.0035 69.6639 61.0273C69.469 60.5585 69.1762 60.1367 68.805 59.7903C68.4338 59.4439 67.9929 59.1809 67.5117 59.0188Z" fill="#7CE0D6"/>
<path d="M119.808 78.8852C119.796 78.8775 119.783 78.8701 119.771 78.8629L86.0328 59.3198C85.5779 59.0563 85.0719 58.8932 84.5488 58.8413C84.0257 58.7894 83.4974 58.8499 82.9996 59.0189C82.5183 59.1808 82.0772 59.4439 81.7059 59.7903C81.3346 60.1368 81.0417 60.5586 80.8468 61.0276C79.2065 65.0035 79.7015 70.2891 82.2083 75.5289C84.5864 80.5019 88.4012 84.5874 92.4122 86.4583C97.5782 88.8668 102.242 89.6148 106.042 89.6148C107.812 89.6174 109.578 89.451 111.316 89.1179C116.089 88.1948 120.047 86.0289 121.164 83.7286C122.061 81.8832 121.516 79.9366 119.808 78.8852Z" fill="#7CE0D6"/>
<path fill-rule="evenodd" clip-rule="evenodd" d="M61.4865 31.8476C61.4865 30.9561 62.2091 30.2334 63.1006 30.2334C65.8911 30.2334 68.5674 31.3419 70.5405 33.3151C72.5137 35.2883 73.6222 37.9644 73.6222 40.7549C73.6222 41.6464 72.8995 42.3691 72.008 42.3691C71.1166 42.3691 70.3939 41.6464 70.3939 40.7549C70.3939 38.8207 69.6255 36.9656 68.2577 35.5979C66.89 34.2302 65.0349 33.4618 63.1006 33.4618C62.2091 33.4618 61.4865 32.7391 61.4865 31.8476Z" fill="#2C3437"/>
<path fill-rule="evenodd" clip-rule="evenodd" d="M87.6133 33.4618C86.6556 33.4618 85.7072 33.6504 84.8223 34.0169C83.9375 34.3835 83.1336 34.9207 82.4564 35.5979C81.7791 36.2751 81.2419 37.0791 80.8755 37.964C80.509 38.8488 80.3204 39.7971 80.3204 40.7549C80.3204 41.6463 79.5978 42.3691 78.7063 42.3691C77.8148 42.3691 77.0921 41.6464 77.092 40.7549C77.092 39.3733 77.3641 38.0051 77.8928 36.7286C78.4215 35.452 79.1965 34.2921 80.1735 33.3151C81.1505 32.3381 82.3103 31.5631 83.5869 31.0343C84.8634 30.5056 86.2316 30.2334 87.6133 30.2334C88.5048 30.2334 89.2275 30.9561 89.2275 31.8476C89.2275 32.7391 88.5048 33.4618 87.6133 33.4618Z" fill="#2C3437"/>
<path d="M91.1696 86.7551H56.2988L72.1395 95.8969C73.0868 96.4462 74.1624 96.7359 75.2575 96.7365C76.3525 96.7371 77.4285 96.4487 78.3764 95.9004L94.2235 86.7546L91.1696 86.7551Z" fill="#2C3437"/>
<path d="M96.0573 66.5637H52.8398V77.041H97.6714V66.5637H96.0573Z" fill="#2C3437"/>
<path d="M94.5615 57.0758L94.17 56.8499H56.3535L55.9602 57.0771C55.0146 57.6245 54.229 58.4102 53.6817 59.3558C53.1344 60.3014 52.8446 61.374 52.8409 62.4666V66.5639H97.6724V62.4672C97.6685 61.3754 97.3794 60.3036 96.8337 59.3579C96.2881 58.4122 95.5047 57.6255 94.5615 57.0758Z" fill="#FFDD0F"/>
<path d="M96.0573 77.0408H52.8398V81.1586C52.8425 82.2533 53.1321 83.3281 53.6797 84.2759C54.2274 85.2238 55.014 86.0115 55.961 86.5606L56.2988 86.7557H94.2235L94.5676 86.557C95.5099 86.0053 96.2919 85.2171 96.8361 84.2704C97.3803 83.3237 97.6678 82.2513 97.6703 81.1594V77.0416L96.0573 77.0408Z" fill="#FFDD0F"/>
<path d="M78.3781 47.7359C77.4312 47.1874 76.3564 46.8984 75.2622 46.8982C74.1679 46.898 73.093 47.1866 72.146 47.7349L56.3525 56.8496H94.17L78.3781 47.7359Z" fill="#2C3437"/>
<path d="M36.8726 127.706C36.5724 127.706 36.2436 127.699 35.8862 127.685C35.543 127.672 35.1928 127.651 34.8354 127.623C34.4922 127.595 34.1491 127.561 33.806 127.519C33.4629 127.478 33.1484 127.422 32.8624 127.353V113.4C33.1484 113.331 33.4629 113.275 33.806 113.234C34.1491 113.192 34.4922 113.158 34.8354 113.13C35.1928 113.102 35.543 113.081 35.8862 113.068C36.2293 113.054 36.5509 113.047 36.8512 113.047C37.709 113.047 38.5096 113.109 39.253 113.234C40.0107 113.358 40.6612 113.573 41.2045 113.877C41.762 114.168 42.1981 114.556 42.5126 115.04C42.8271 115.525 42.9844 116.12 42.9844 116.826C42.9844 117.615 42.7914 118.266 42.4054 118.778C42.0194 119.276 41.5047 119.65 40.8614 119.899C41.7335 120.148 42.4268 120.543 42.9415 121.082C43.4562 121.622 43.7135 122.384 43.7135 123.366C43.7135 124.806 43.1631 125.893 42.0623 126.626C40.9757 127.346 39.2458 127.706 36.8726 127.706ZM34.9211 120.875V125.941C35.0784 125.955 35.2643 125.969 35.4787 125.983C35.6646 125.997 35.879 126.01 36.122 126.024C36.3794 126.024 36.6725 126.024 37.0013 126.024C37.616 126.024 38.1951 125.99 38.7383 125.92C39.2959 125.837 39.782 125.699 40.1966 125.505C40.6112 125.311 40.94 125.041 41.183 124.695C41.4404 124.349 41.569 123.913 41.569 123.387C41.569 122.917 41.4761 122.522 41.2903 122.204C41.1044 121.871 40.8328 121.608 40.4754 121.415C40.1322 121.221 39.7176 121.082 39.2316 120.999C38.7455 120.916 38.2022 120.875 37.6017 120.875H34.9211ZM34.9211 119.255H37.1085C37.6232 119.255 38.1093 119.221 38.5668 119.151C39.0243 119.082 39.4174 118.958 39.7462 118.778C40.0893 118.598 40.3538 118.362 40.5397 118.072C40.7398 117.781 40.8399 117.414 40.8399 116.971C40.8399 116.556 40.7398 116.21 40.5397 115.933C40.3395 115.642 40.0608 115.414 39.7033 115.248C39.3602 115.068 38.9528 114.936 38.481 114.853C38.0092 114.77 37.5088 114.729 36.9798 114.729C36.4509 114.729 36.0363 114.736 35.736 114.75C35.4358 114.763 35.1642 114.784 34.9211 114.812V119.255Z" fill="#2C3437"/>
<path d="M52.1752 127.893C51.203 127.893 50.3595 127.748 49.6447 127.457C48.9299 127.166 48.3437 126.772 47.8862 126.273C47.4287 125.761 47.0856 125.159 46.8569 124.467C46.6424 123.775 46.5352 123.027 46.5352 122.224V113.192H48.6154V121.996C48.6154 123.436 48.9442 124.481 49.6018 125.131C50.2595 125.782 51.1173 126.107 52.1752 126.107C52.7042 126.107 53.1831 126.031 53.612 125.879C54.0552 125.713 54.4341 125.464 54.7486 125.131C55.0631 124.799 55.3062 124.377 55.4777 123.865C55.6493 123.339 55.7351 122.716 55.7351 121.996V113.192H57.8152V122.224C57.8152 123.027 57.7008 123.775 57.4721 124.467C57.2576 125.159 56.9145 125.761 56.4427 126.273C55.9852 126.772 55.3991 127.166 54.6843 127.457C53.9837 127.748 53.1474 127.893 52.1752 127.893Z" fill="#2C3437"/>
<path d="M61.4067 113.192H63.4869V127.582H61.4067V113.192Z" fill="#2C3437"/>
<path d="M76.1084 125.837V127.582H67.1658V113.192H69.246V125.837H76.1084Z" fill="#2C3437"/>
<path d="M85.744 113.192V114.936H81.069V127.582H78.9888V114.936H74.3139V113.192H85.744Z" fill="#2C3437"/>
<path d="M96.9141 127.706C96.6138 127.706 96.285 127.699 95.9276 127.685C95.5845 127.672 95.2342 127.651 94.8768 127.623C94.5337 127.595 94.1906 127.561 93.8474 127.519C93.5043 127.478 93.1898 127.422 92.9039 127.353V113.4C93.1898 113.331 93.5043 113.275 93.8474 113.234C94.1906 113.192 94.5337 113.158 94.8768 113.13C95.2342 113.102 95.5845 113.081 95.9276 113.068C96.2707 113.054 96.5924 113.047 96.8926 113.047C97.7504 113.047 98.551 113.109 99.2944 113.234C100.052 113.358 100.703 113.573 101.246 113.877C101.803 114.168 102.24 114.556 102.554 115.04C102.869 115.525 103.026 116.12 103.026 116.826C103.026 117.615 102.833 118.266 102.447 118.778C102.061 119.276 101.546 119.65 100.903 119.899C101.775 120.148 102.468 120.543 102.983 121.082C103.498 121.622 103.755 122.384 103.755 123.366C103.755 124.806 103.205 125.893 102.104 126.626C101.017 127.346 99.2873 127.706 96.9141 127.706ZM94.9626 120.875V125.941C95.1198 125.955 95.3057 125.969 95.5201 125.983C95.706 125.997 95.9204 126.01 96.1635 126.024C96.4208 126.024 96.7139 126.024 97.0427 126.024C97.6575 126.024 98.2365 125.99 98.7798 125.92C99.3373 125.837 99.8234 125.699 100.238 125.505C100.653 125.311 100.981 125.041 101.224 124.695C101.482 124.349 101.61 123.913 101.61 123.387C101.61 122.917 101.518 122.522 101.332 122.204C101.146 121.871 100.874 121.608 100.517 121.415C100.174 121.221 99.7591 121.082 99.273 120.999C98.7869 120.916 98.2436 120.875 97.6432 120.875H94.9626ZM94.9626 119.255H97.15C97.6646 119.255 98.1507 119.221 98.6082 119.151C99.0657 119.082 99.4589 118.958 99.7877 118.778C100.131 118.598 100.395 118.362 100.581 118.072C100.781 117.781 100.881 117.414 100.881 116.971C100.881 116.556 100.781 116.21 100.581 115.933C100.381 115.642 100.102 115.414 99.7448 115.248C99.4017 115.068 98.9942 114.936 98.5224 114.853C98.0506 114.77 97.5503 114.729 97.0213 114.729C96.4923 114.729 96.0777 114.736 95.7775 114.75C95.4773 114.763 95.2056 114.784 94.9626 114.812V119.255Z" fill="#2C3437"/>
<path d="M109.678 127.582V121.809C108.691 120.328 107.762 118.868 106.89 117.428C106.018 115.988 105.196 114.576 104.424 113.192H106.868C107.412 114.327 108.019 115.483 108.691 116.66C109.363 117.823 110.057 118.944 110.771 120.024C111.472 118.944 112.158 117.823 112.83 116.66C113.502 115.483 114.117 114.327 114.674 113.192H116.99C116.218 114.576 115.396 115.988 114.524 117.428C113.652 118.854 112.73 120.3 111.758 121.768V127.582H109.678Z" fill="#2C3437"/>
<path d="M40.649 162.275C39.2829 162.275 37.9044 162.226 36.5135 162.128C35.1226 162.054 33.9056 161.882 32.8624 161.611V136.77C33.4088 136.672 33.9925 136.586 34.6135 136.512C35.2344 136.414 35.8678 136.34 36.5135 136.291C37.1593 136.241 37.7927 136.205 38.4136 136.18C39.0594 136.155 39.6679 136.143 40.2391 136.143C41.8039 136.143 43.2569 136.266 44.5981 136.512C45.9393 136.734 47.0943 137.115 48.0629 137.656C49.0564 138.198 49.8264 138.911 50.3728 139.797C50.9192 140.683 51.1924 141.778 51.1924 143.082C51.1924 144.288 50.8944 145.321 50.2983 146.183C49.727 147.044 48.9198 147.733 47.8766 148.25C49.4414 148.766 50.5963 149.529 51.3415 150.538C52.0866 151.547 52.4591 152.826 52.4591 154.377C52.4591 157.01 51.4905 158.99 49.5532 160.319C47.6158 161.623 44.6478 162.275 40.649 162.275ZM37.4822 150.464V158.252C38.0038 158.301 38.5626 158.338 39.1587 158.363C39.7548 158.388 40.3012 158.4 40.798 158.4C41.7666 158.4 42.6608 158.338 43.4804 158.215C44.3249 158.092 45.0452 157.883 45.6413 157.588C46.2622 157.268 46.7465 156.85 47.0943 156.333C47.4668 155.816 47.6531 155.152 47.6531 154.34C47.6531 152.888 47.1191 151.879 46.0511 151.313C44.9831 150.747 43.5053 150.464 41.6176 150.464H37.4822ZM37.4822 146.81H40.798C42.5863 146.81 43.9896 146.564 45.0079 146.072C46.0262 145.555 46.5354 144.645 46.5354 143.34C46.5354 142.11 46.0014 141.237 44.9334 140.72C43.8902 140.203 42.5242 139.945 40.8352 139.945C40.1149 139.945 39.4692 139.957 38.8979 139.982C38.3515 140.006 37.8796 140.043 37.4822 140.092V146.81Z" fill="#2C3437"/>
<path d="M57.3481 161.98V136.401H73.9271V140.351H62.0424V146.662H72.6231V150.538H62.0424V158.031H74.8212V161.98H57.3481Z" fill="#2C3437"/>
<path d="M79.1779 161.98V136.401H95.7568V140.351H83.8721V146.662H94.4529V150.538H83.8721V158.031H96.651V161.98H79.1779Z" fill="#2C3437"/>
<path d="M107.267 158.511C108.956 158.511 110.185 158.228 110.955 157.662C111.725 157.096 112.11 156.296 112.11 155.262C112.11 154.647 111.973 154.118 111.7 153.675C111.452 153.232 111.079 152.839 110.582 152.494C110.111 152.125 109.527 151.793 108.831 151.498C108.136 151.178 107.341 150.87 106.447 150.575C105.553 150.255 104.684 149.911 103.839 149.541C103.019 149.148 102.287 148.668 101.641 148.102C101.02 147.536 100.511 146.859 100.113 146.072C99.7409 145.284 99.5546 144.337 99.5546 143.23C99.5546 140.917 100.362 139.108 101.976 137.804C103.591 136.475 105.789 135.811 108.571 135.811C110.185 135.811 111.613 135.995 112.855 136.364C114.122 136.709 115.115 137.09 115.836 137.509L114.383 141.274C113.538 140.806 112.607 140.449 111.588 140.203C110.595 139.957 109.564 139.834 108.496 139.834C107.229 139.834 106.236 140.092 105.516 140.609C104.82 141.126 104.472 141.852 104.472 142.787C104.472 143.353 104.584 143.845 104.808 144.263C105.056 144.657 105.391 145.014 105.814 145.334C106.261 145.654 106.77 145.949 107.341 146.219C107.937 146.49 108.583 146.749 109.278 146.995C110.495 147.438 111.576 147.893 112.52 148.36C113.488 148.803 114.296 149.345 114.941 149.984C115.612 150.6 116.121 151.338 116.469 152.199C116.817 153.036 116.99 154.057 116.99 155.262C116.99 157.576 116.158 159.372 114.494 160.651C112.855 161.906 110.446 162.534 107.267 162.534C106.199 162.534 105.218 162.46 104.323 162.312C103.454 162.189 102.672 162.029 101.976 161.833C101.306 161.636 100.722 161.439 100.225 161.242C99.7285 161.02 99.3311 160.824 99.033 160.651L100.412 156.85C101.082 157.219 101.989 157.588 103.131 157.957C104.274 158.326 105.652 158.511 107.267 158.511Z" fill="#2C3437"/>
<defs>
<linearGradient id="paint0_linear" x1="125.554" y1="75.5897" x2="125.554" y2="413.815" gradientUnits="userSpaceOnUse">
<stop offset="0.0558304" stop-color="#FFE1D5"/>
<stop offset="0.585067" stop-color="#FCFCF0"/>
<stop offset="1" stop-color="#E5F9F7"/>
</linearGradient>
</defs>
</svg>
